PathFileType	4	(X/Y/Z)	/Users/visionmauri/2_8_1_f_Sports2D/2_8_1_f_Sports2D_px_person00.trc
DataRate	CameraRate	NumFrames	NumMarkers	Units	OrigDataRate	OrigDataStartFrame	OrigNumFrames
30.0	30.0	4	22	m	30.0	87	350
Frame#	Time	Hip			RHip			RKnee			RAnkle			RBigToe			RSmallToe			RHeel			LHip			LKnee			LAnkle			LBigToe			LSmallToe			LHeel			Neck			Head			Nose			RShoulder			RElbow			RWrist			LShoulder			LElbow			LWrist			
		X1	Y1	Z1	X2	Y2	Z2	X3	Y3	Z3	X4	Y4	Z4	X5	Y5	Z5	X6	Y6	Z6	X7	Y7	Z7	X8	Y8	Z8	X9	Y9	Z9	X10	Y10	Z10	X11	Y11	Z11	X12	Y12	Z12	X13	Y13	Z13	X14	Y14	Z14	X15	Y15	Z15	X16	Y16	Z16	X17	Y17	Z17	X18	Y18	Z18	X19	Y19	Z19	X20	Y20	Z20	X21	Y21	Z21	X22	Y22	Z22
87	2.9083094555873927	622.3393720458045	738.3038509203594	0.0	681.2551155925346	755.9360511116954	0.0	672.0822759760439	1003.6821929487655	0.0	651.7219929143565	1221.9352138495199	0.0	644.8813963911019	1235.9519948722138	0.0	683.7294572115657	1253.5942857267512	0.0	643.1271709379316	1262.6172027420587	0.0	566.2056005811426	743.9778321808479	0.0	561.7347330334685	851.5388237235895	0.0	543.580944436772	986.2807562788139	0.0	552.7544971439279	985.1343766167462	0.0	520.8466283671214	994.0460527197374	0.0	540.7905120575567	1020.7731076848227	0.0	635.5928336482305	448.22981043620814	0.0	606.0972247484576	338.7652542263838	0.0	613.3751069568781	400.10760736956314	0.0	739.6634947717963	461.47467881648356	0.0	817.9045634435693	570.9881710315211	0.0	823.026409584798	724.0678212659518	0.0	551.9776544330529	466.55447164808	0.0	481.8583249317923	587.3491686609079	0.0	413.78051718889776	721.3904640257268	0.0
88	2.941738299904489	623.0931989592286	738.4710206397754	0.0	681.2169406043603	755.411790480183	0.0	672.0056630841547	1002.9777529301595	0.0	651.3907629518665	1220.8503575482239	0.0	644.2401151286737	1235.4064992464814	0.0	684.2712950639426	1252.8062944011417	0.0	642.7530886827959	1261.842994485672	0.0	566.9899572233687	744.3643677265766	0.0	560.4118982042222	850.4160017333215	0.0	544.2800986180613	979.9864256189535	0.0	552.8232195397169	980.4646397783641	0.0	522.7382174051849	991.1472099778426	0.0	540.6683771794998	1015.8717903916568	0.0	636.0177942174907	447.866857864837	0.0	602.4340648910759	339.3235432128091	0.0	612.2645226645427	400.08261868545145	0.0	739.7495325992295	461.46421062448275	0.0	821.5468247318693	571.1574129964334	0.0	822.792485742095	723.5868740429461	0.0	552.5631838812766	466.67206418429237	0.0	482.9984793360982	590.4385404245104	0.0	413.7195324535201	724.7785973023102	0.0
89	2.9751671442215857	624.002868858361	738.5620308478633	0.0	680.9701311168379	755.6012299705465	0.0	672.0610471290198	1002.103347442334	0.0	650.8964566260655	1220.9549247349	0.0	643.907456991677	1235.606132020725	0.0	683.7758522138026	1252.4752512119558	0.0	642.0800790912997	1260.5695018434906	0.0	567.866922744775	743.7101837456966	0.0	559.9497993688984	856.992528994451	0.0	543.8590394849759	975.3292170423678	0.0	553.3155275380309	974.5834961343135	0.0	522.4871614825386	984.0898993171635	0.0	541.6531944589797	1010.5920782134018	0.0	636.2929336987659	448.02711366495964	0.0	597.8826121744295	342.1613019812257	0.0	610.2338679275488	399.5273719422444	0.0	740.1146731205057	460.97169390675003	0.0	824.6262747330366	571.4753659487886	0.0	821.9655985960374	721.4876933020697	0.0	553.5523756656232	465.98415586844425	0.0	483.0551419313296	594.5743810429267	0.0	413.96891421586344	727.2425188803101	0.0
90	3.008595988538682	624.9643866401667	737.6095995660315	0.0	680.9363286706696	755.8413380019188	0.0	671.8056676278034	1001.094522543605	0.0	650.5787495790817	1221.7229224845378	0.0	644.4319525335819	1235.9546983114192	0.0	683.3348906655546	1252.8829854880278	0.0	641.2769473496794	1259.2877047104778	0.0	569.2323360443617	742.354992741639	0.0	559.6736091943952	870.4894279521252	0.0	542.7275198502109	973.0520843900115	0.0	551.6153782153714	966.7100834488349	0.0	520.4596654643514	972.5133653211641	0.0	542.7842570997329	1009.3825809178951	0.0	636.5341019541322	448.9928853935532	0.0	592.3981846555866	345.93083917912224	0.0	606.7384931152974	400.93191959357955	0.0	740.7157277715095	460.3301385826266	0.0	827.1892697194426	572.3468864633562	0.0	820.0197867190993	717.8484604685724	0.0	554.8800124853204	465.68823274159934	0.0	483.11873236078173	598.855226493684	0.0	415.2835560801425	728.4431105999853	0.0
